<?xml version="1.0" standalone="no"?>
<!DOCTYPE svg PUBLIC "-//W3C//DTD SVG 20010904//EN"
 "http://www.w3.org/TR/2001/REC-SVG-20010904/DTD/svg10.dtd">
<svg version="1.0" xmlns="http://www.w3.org/2000/svg"
 width="512.000000pt" height="512.000000pt" viewBox="0 0 512.000000 512.000000"
 preserveAspectRatio="xMidYMid meet">

<g transform="translate(0.000000,512.000000) scale(0.100000,-0.100000)"
fill="#000000" stroke="none">
<path fill="#25C2A0" d="M2370 5113 c-255 -19 -611 -101 -650 -151 -23 -28 -25 -59 -6 -84 24
-32 57 -37 126 -17 227 66 416 97 635 106 413 16 838 -80 1205 -273 104 -55
323 -195 335 -214 4 -7 -23 -8 -78 -4 -99 8 -136 -7 -163 -65 -14 -30 -15 -45
-4 -125 6 -50 14 -101 17 -113 4 -19 -14 -10 -108 53 -487 326 -1098 424
-1659 267 -182 -51 -442 -167 -525 -235 -63 -53 -65 -123 -4 -192 l39 -44 -28
-5 c-78 -14 -702 -100 -706 -96 -2 3 95 694 103 729 1 2 29 -23 63 -57 111
-107 134 -109 274 -19 55 35 135 83 179 108 95 52 118 83 95 126 -9 15 -28 33
-44 41 -26 12 -33 10 -99 -24 -40 -21 -114 -64 -166 -96 l-94 -59 -78 75
c-104 99 -136 111 -206 78 -52 -24 -66 -69 -98 -303 l-28 -205 -37 -40 c-309
-329 -545 -819 -624 -1290 -103 -619 29 -1280 358 -1788 l57 -89 -76 -79 c-99
-104 -111 -136 -78 -206 24 -52 69 -66 303 -98 l205 -28 40 -37 c61 -57 195
-163 277 -218 592 -399 1313 -534 2014 -377 272 62 554 180 792 332 l84 54 79
-76 c104 -99 136 -111 206 -78 52 24 66 69 98 303 l28 205 55 60 c260 288 474
700 567 1090 39 162 51 238 65 390 49 541 -94 1130 -384 1579 l-57 88 76 79
c99 104 111 136 78 206 -24 52 -69 66 -303 98 l-205 28 -60 55 c-160 144 -363
278 -580 383 -299 143 -571 219 -895 248 -107 10 -304 12 -410 4z m355 -703
c370 -35 716 -175 1002 -407 64 -52 93 -82 97 -101 3 -15 17 -110 31 -212 14
-102 31 -198 37 -214 27 -67 126 -87 194 -38 21 16 45 36 53 45 7 9 17 17 21
17 14 0 129 -257 164 -365 36 -111 68 -260 81 -369 8 -67 37 -106 80 -106 32
0 75 41 75 72 0 92 -57 349 -111 504 -39 115 -149 338 -189 386 -55 66 -124
69 -194 7 l-44 -39 -5 28 c-14 78 -100 702 -96 706 3 2 694 -95 729 -103 2 -1
-23 -29 -57 -63 -109 -112 -110 -133 -13 -284 87 -134 207 -375 253 -510 45
-129 91 -317 114 -464 22 -145 24 -511 4 -645 -60 -401 -177 -715 -387 -1032
-41 -61 -78 -115 -84 -118 -6 -4 -8 25 -4 83 l7 88 -32 36 c-18 20 -45 39 -61
43 -26 6 -127 -5 -213 -21 -26 -5 -24 -1 46 105 167 250 274 525 321 827 21
132 20 141 -9 169 -29 29 -64 32 -95 7 -18 -15 -26 -42 -46 -162 -37 -225 -86
-376 -181 -565 -92 -182 -260 -409 -311 -419 -15 -3 -110 -17 -212 -31 -102
-14 -198 -31 -214 -37 -67 -27 -87 -126 -38 -194 16 -21 36 -45 45 -53 9 -7
17 -17 17 -21 0 -13 -256 -130 -362 -164 -598 -196 -1250 -76 -1745 320 -65
52 -93 81 -97 101 -3 15 -17 111 -31 213 -14 102 -31 198 -37 214 -27 67 -126
87 -194 38 -21 -16 -45 -36 -53 -45 -7 -9 -17 -17 -21 -17 -13 0 -129 254
-164 360 -197 594 -77 1251 320 1747 52 65 81 93 101 97 15 3 114 17 218 32
105 14 202 33 217 40 62 32 77 125 30 190 -16 21 -36 45 -45 53 -9 7 -17 17
-17 21 0 13 254 129 360 164 241 80 494 109 745 86z m-2081 -478 l-7 -88 32
-36 c18 -20 45 -39 61 -43 25 -6 160 8 217 22 19 4 10 -14 -53 -108 -247 -369
-372 -838 -336 -1261 15 -169 49 -346 93 -478 59 -179 176 -417 227 -463 50
-45 126 -36 187 23 l32 31 6 -28 c14 -78 100 -703 96 -707 -3 -2 -694 95 -729
103 -2 1 23 29 57 63 109 112 110 133 13 284 -87 134 -207 375 -253 510 -231
663 -163 1400 183 2003 58 101 165 261 175 261 3 0 2 -40 -1 -88z m3681 -2754
c-2 -13 -25 -171 -51 -353 -25 -181 -48 -336 -50 -344 -3 -10 -24 4 -67 46
-111 109 -132 110 -283 13 -131 -85 -351 -195 -489 -245 -615 -226 -1322 -183
-1910 114 -121 61 -356 208 -370 231 -4 6 25 8 83 4 l88 -7 36 32 c20 18 39
45 43 61 6 26 -4 127 -21 212 -5 26 1 23 106 -47 371 -248 836 -372 1263 -336
279 23 514 88 754 207 145 72 199 113 212 160 11 41 -9 97 -49 139 l-32 33 43
7 c345 51 641 93 667 94 29 1 32 -2 27 -21z"/>
<path fill="#54C7EC" d="M2302 3943 c-46 -22 -68 -54 -94 -135 -13 -39 -30 -73 -38 -75 -8 -3
-51 -21 -96 -40 l-81 -34 -74 36 c-130 62 -161 49 -356 -148 -189 -190 -200
-217 -138 -346 l36 -74 -34 -81 c-19 -45 -37 -88 -40 -96 -2 -8 -36 -25 -75
-38 -145 -47 -152 -62 -152 -352 0 -290 7 -305 152 -352 39 -13 73 -30 75 -38
3 -8 21 -51 40 -96 l34 -81 -36 -74 c-62 -129 -51 -156 138 -346 195 -197 226
-210 356 -148 l74 36 81 -34 c45 -19 88 -37 96 -40 8 -2 25 -36 38 -75 47
-145 62 -152 352 -152 290 0 305 7 352 152 13 39 30 73 38 75 8 3 51 21 96 40
l81 34 74 -36 c130 -62 161 -49 356 148 189 190 200 217 138 346 l-36 74 34
81 c19 45 37 88 40 96 2 8 36 25 75 38 145 47 152 62 152 352 0 290 -7 305
-152 352 -39 13 -73 30 -75 38 -3 8 -21 51 -40 96 l-34 81 36 74 c62 130 49
161 -148 356 -190 189 -217 200 -346 138 l-74 -36 -81 34 c-45 19 -88 37 -96
40 -8 2 -25 36 -38 75 -47 145 -62 152 -354 152 -185 0 -229 -3 -256 -17z
m477 -204 c12 -39 35 -84 49 -99 32 -35 251 -130 300 -130 18 0 65 16 104 36
l71 36 139 -140 140 -139 -37 -73 c-46 -92 -44 -117 18 -265 55 -130 79 -155
176 -186 l71 -23 0 -196 0 -196 -71 -23 c-97 -31 -121 -56 -176 -186 -62 -148
-64 -173 -18 -265 l37 -73 -140 -139 -139 -140 -71 36 c-39 20 -86 36 -104 36
-49 0 -268 -95 -300 -130 -14 -15 -37 -60 -49 -99 l-23 -71 -196 0 -196 0 -23
70 c-26 82 -55 120 -108 143 -21 9 -75 32 -121 51 -46 20 -99 36 -118 36 -20
0 -65 -15 -106 -36 l-71 -36 -139 140 -140 139 37 73 c46 92 44 117 -18 265
-55 130 -79 155 -176 186 l-71 23 0 196 0 196 71 23 c39 12 84 35 99 49 35 32
130 251 130 300 0 18 -16 65 -36 104 l-36 71 140 139 139 140 71 -36 c41 -21
86 -36 106 -36 19 0 72 16 118 36 46 19 100 42 121 51 53 23 82 61 108 143
l23 70 196 0 196 0 23 -71z"/>
<path fill="#54C7EC" d="M2380 3446 c-338 -71 -603 -325 -697 -666 -28 -102 -25 -349 5 -453
91 -316 322 -549 632 -637 107 -31 299 -38 411 -15 364 73 641 350 714 714 23
112 16 304 -15 411 -88 308 -321 540 -632 631 -94 27 -320 35 -418 15z m359
-156 c391 -94 642 -497 555 -893 -34 -153 -137 -321 -259 -420 -76 -61 -219
-131 -312 -151 -272 -60 -572 44 -745 258 -260 323 -212 802 106 1058 183 147
427 202 655 148z"/>
<path fill="#25C2A0" d="M2471 2955 c-214 -47 -352 -260 -307 -474 65 -309 431 -431 667 -222
245 217 134 628 -187 696 -82 17 -90 17 -173 0z m209 -173 c180 -91 178 -354
-4 -447 -80 -40 -149 -41 -229 -1 -68 33 -110 84 -133 163 -20 68 -11 127 30
195 32 55 110 112 165 121 50 9 116 -3 171 -31z"/>
</g>
</svg>