<?xml version="1.0" standalone="no"?>
<!DOCTYPE svg PUBLIC "-//W3C//DTD SVG 20010904//EN"
 "http://www.w3.org/TR/2001/REC-SVG-20010904/DTD/svg10.dtd">
<svg version="1.0" xmlns="http://www.w3.org/2000/svg"
 width="640.000000pt" height="640.000000pt" viewBox="0 0 640.000000 640.000000"
 preserveAspectRatio="xMidYMid meet">

<g transform="translate(0.000000,640.000000) scale(0.100000,-0.100000)"
fill="#000000" stroke="none">
<path fill="#25C2A0" d="M3803 5374 c-51 -40 -60 -104 -24 -171 14 -28 71 -53 120 -53 l41 0
0 -164 0 -164 -42 -7 c-199 -30 -389 -89 -564 -175 -130 -63 -299 -171 -380
-242 -27 -24 -56 -49 -65 -56 -13 -10 -154 -12 -648 -12 -688 0 -690 0 -711
-55 -18 -49 -12 -111 14 -142 l24 -28 704 -3 c386 -1 712 0 723 2 11 3 58 38
105 77 223 188 470 308 760 370 90 20 135 23 315 23 180 0 225 -3 315 -23 514
-110 924 -423 1154 -879 155 -308 210 -678 151 -1015 -123 -694 -672 -1233
-1370 -1344 -134 -21 -380 -21 -505 1 -390 68 -675 223 -969 529 -50 52 -86
81 -110 88 -24 6 -271 9 -728 7 l-691 -3 -26 -24 c-22 -21 -26 -33 -26 -82 0
-52 3 -60 31 -83 l31 -26 627 0 627 0 83 -90 c295 -322 691 -530 1132 -594
138 -21 399 -21 538 -1 971 141 1676 984 1638 1960 -13 337 -101 633 -271 915
l-57 94 80 80 80 80 23 -21 c54 -49 90 -47 130 8 15 19 17 31 9 50 -5 13 -72
86 -148 162 -153 150 -170 159 -218 112 -32 -33 -32 -64 0 -101 14 -16 25 -31
25 -34 0 -3 -30 -36 -68 -73 l-68 -67 -69 71 c-264 267 -634 463 -1002 531
l-123 22 0 163 0 163 43 0 c130 0 192 144 96 224 l-31 26 -336 0 -337 0 -32
-26z"/>
<path fill="#54C7EC" d="M985 3744 c-32 -35 -35 -116 -5 -154 l19 -25 761 -3 761 -2 24 24
c21 21 25 35 25 81 0 46 -4 60 -25 80 l-24 25 -756 0 -756 0 -24 -26z"/>
<path fill="#54C7EC" d="M4955 3614 c-16 -8 -224 -208 -460 -444 l-430 -430 -270 269 c-302
300 -303 300 -389 262 -69 -30 -97 -112 -62 -179 8 -15 161 -173 340 -351
l324 -324 57 -5 57 -5 504 504 c359 359 507 513 515 537 22 66 -13 141 -77
168 -43 18 -72 18 -109 -2z"/>
<path fill="#54C7EC" d="M139 3137 c-54 -42 -52 -156 5 -186 15 -8 338 -11 1204 -9 l1184 3
19 24 c30 36 27 124 -6 156 l-24 25 -1183 0 c-914 -1 -1187 -3 -1199 -13z"/>
<path fill="#54C7EC" d="M987 2504 c-42 -42 -35 -135 12 -171 12 -10 193 -12 769 -13 l753 0
24 25 c33 32 36 120 6 156 l-19 24 -760 3 -759 2 -26 -26z"/>
</g>
</svg>