<?xml version="1.0" standalone="no"?>
<!DOCTYPE svg PUBLIC "-//W3C//DTD SVG 20010904//EN"
 "http://www.w3.org/TR/2001/REC-SVG-20010904/DTD/svg10.dtd">
<svg version="1.0" xmlns="http://www.w3.org/2000/svg"
 width="192.000000pt" height="192.000000pt" viewBox="0 0 192.000000 192.000000"
 preserveAspectRatio="xMidYMid meet">

<g transform="translate(0.000000,192.000000) scale(0.100000,-0.100000)"
fill="#000000" stroke="none">
<path fill="#25C2A0" d="M800 1771 c-293 -42 -507 -237 -564 -514 -43 -205 -4 -334 196 -652
87 -139 87 -140 102 -265 8 -73 14 -95 26 -95 12 0 16 16 18 74 5 117 -9 160
-102 311 -169 273 -206 362 -206 497 0 269 185 506 451 579 46 13 101 18 194
18 117 0 138 -3 214 -29 187 -64 320 -189 392 -370 21 -53 23 -77 24 -210 1
-165 9 -194 75 -290 34 -50 33 -60 -7 -68 -45 -10 -56 -23 -62 -68 -6 -41 -8
-44 -48 -52 -76 -15 -83 -57 -14 -78 l41 -12 0 -66 c0 -114 -37 -135 -175
-101 -108 27 -131 26 -165 -8 -28 -28 -48 -100 -35 -122 14 -23 39 -4 49 39
16 65 28 68 142 43 112 -25 161 -20 200 20 20 19 25 40 34 118 9 90 9 96 -10
112 l-20 17 20 6 c19 6 26 22 32 74 2 18 11 27 32 32 38 10 66 37 66 64 0 12
-14 41 -31 65 -17 24 -42 66 -55 93 -21 47 -23 60 -17 161 6 128 -9 211 -57
310 -80 167 -246 300 -435 350 -72 19 -228 28 -305 17z"/>
<path fill="#54C7EC" d="M791 1574 c-260 -70 -423 -342 -356 -597 23 -89 62 -156 130 -224
195 -195 499 -196 694 -2 96 97 141 206 141 345 0 322 -303 560 -609 478z
m234 -50 c124 -32 225 -115 283 -233 37 -74 37 -77 37 -195 0 -118 -1 -123
-34 -189 -111 -222 -365 -312 -587 -208 -274 128 -340 490 -129 707 111 113
276 159 430 118z"/>
<path fill="#54C7EC" d="M1055 1326 c-71 -13 -86 -21 -78 -42 4 -11 16 -15 39 -12 19 2 34 3
34 1 0 -2 -22 -26 -49 -54 -39 -40 -57 -51 -87 -54 -46 -4 -78 -37 -71 -73 4
-19 -8 -37 -50 -81 -54 -57 -55 -58 -102 -53 -34 3 -50 0 -60 -11 -19 -24 -5
-37 39 -37 44 0 63 -21 58 -68 -2 -21 2 -28 19 -30 16 -2 23 3 28 26 3 16 3
41 0 55 -6 22 1 35 46 82 44 45 60 55 86 55 43 0 73 30 73 73 0 25 11 42 49
80 54 52 66 57 58 26 -7 -27 1 -49 19 -49 18 0 30 31 39 104 6 45 4 60 -6 67
-8 5 -16 8 -19 8 -3 -1 -32 -7 -65 -13z m-127 -229 c2 -10 -3 -17 -12 -17 -18
0 -29 16 -21 31 9 14 29 6 33 -14z"/>
</g>
</svg>