<?xml version="1.0" standalone="no"?>
<!DOCTYPE svg PUBLIC "-//W3C//DTD SVG 20010904//EN"
 "http://www.w3.org/TR/2001/REC-SVG-20010904/DTD/svg10.dtd">
<svg version="1.0" xmlns="http://www.w3.org/2000/svg"
 width="400.000000pt" height="400.000000pt" viewBox="0 0 400.000000 400.000000"
 preserveAspectRatio="xMidYMid meet">

<g transform="translate(0.000000,400.000000) scale(0.100000,-0.100000)"
fill="#000000" stroke="none">
<path fill="#25C2A0" d="M1265 3781 c-258 -56 -476 -176 -665 -369 -191 -195 -307 -413 -355
-667 -19 -103 -19 -325 0 -434 94 -534 476 -939 1000 -1057 123 -28 428 -25
548 4 154 38 326 112 414 178 17 13 40 24 50 24 10 0 40 -22 66 -48 44 -45 47
-51 47 -102 l0 -55 548 -547 c462 -462 552 -548 575 -548 23 0 60 31 198 168
141 140 169 173 169 197 0 25 -78 107 -549 579 l-549 549 -47 -6 c-46 -7 -48
-6 -95 43 -26 27 -50 57 -54 66 -4 10 5 35 22 63 190 313 250 626 181 946 -57
263 -165 461 -359 656 -186 188 -413 311 -663 360 -128 25 -365 25 -482 0z
m355 -111 c281 -34 504 -137 694 -319 177 -170 275 -343 328 -579 29 -127 30
-363 3 -492 -32 -155 -114 -345 -198 -459 -100 -136 -271 -280 -411 -345 -190
-90 -318 -118 -531 -118 -205 0 -325 25 -501 107 -271 125 -508 400 -598 695
-93 308 -68 602 76 894 99 202 317 413 522 506 96 44 230 86 316 99 147 22
193 24 300 11z m919 -2064 c52 -53 51 -79 -6 -123 -59 -46 -59 -46 -103 -7
-68 62 -69 69 -14 125 27 27 55 49 64 49 9 0 35 -20 59 -44z m694 -596 c402
-403 476 -482 468 -497 -14 -28 -192 -193 -207 -193 -15 0 -945 931 -958 960
-7 15 -1 26 25 53 19 19 60 62 93 95 36 38 67 62 80 62 15 0 165 -144 499
-480z"/>
<path fill="#54C7EC" d="M2303 2990 c-56 -29 -77 -74 -68 -146 l7 -55 -149 -148 -149 -149
-66 5 c-51 4 -71 2 -89 -11 -26 -17 -60 -21 -74 -7 -6 4 -41 25 -78 45 -37 20
-84 46 -105 58 -20 11 -65 36 -99 55 -74 41 -79 46 -86 102 -10 82 -80 139
-155 126 -74 -13 -112 -64 -113 -155 l-1 -65 -154 -135 c-215 -187 -199 -176
-229 -162 -57 26 -136 7 -167 -40 -91 -140 92 -288 207 -168 24 25 30 41 34
100 l6 70 170 150 170 149 66 -6 c50 -4 73 -2 98 12 19 9 43 14 56 11 12 -3
92 -45 176 -93 85 -47 166 -93 182 -100 20 -11 27 -22 27 -44 0 -44 23 -91 59
-122 26 -21 43 -27 82 -27 42 0 55 5 87 34 36 34 37 36 38 111 l1 76 144 145
144 145 52 -6 c67 -8 113 8 142 50 31 46 36 93 14 134 -38 72 -109 96 -180 61z"/>
</g>
</svg>