<?xml version="1.0" standalone="no"?>
<!DOCTYPE svg PUBLIC "-//W3C//DTD SVG 20010904//EN"
 "http://www.w3.org/TR/2001/REC-SVG-20010904/DTD/svg10.dtd">
<svg version="1.0" xmlns="http://www.w3.org/2000/svg"
 width="160.000000pt" height="160.000000pt" viewBox="0 0 160.000000 160.000000"
 preserveAspectRatio="xMidYMid meet">

<g transform="translate(0.000000,160.000000) scale(0.100000,-0.100000)"
fill="#000000" stroke="none">
<path fill="#25C2A0" d="M675 1527 c-155 -52 -271 -180 -304 -335 -6 -29 -11 -100 -11 -157
l0 -104 -30 -23 c-17 -12 -41 -44 -55 -72 -25 -50 -25 -51 -25 -330 0 -310 3
-327 66 -390 56 -56 60 -56 484 -56 424 0 428 0 484 56 63 63 66 80 66 390 0
279 0 280 -25 330 -14 28 -38 60 -55 72 l-30 23 0 104 c0 57 -5 128 -11 157
-28 131 -125 254 -246 311 -60 28 -80 32 -168 34 -63 2 -115 -2 -140 -10z
m278 -75 c58 -26 140 -101 174 -160 36 -61 53 -140 53 -249 l0 -93 -65 0 -65
0 0 88 c0 154 -44 241 -144 288 -137 64 -299 -7 -341 -150 -8 -27 -15 -89 -15
-138 l0 -88 -65 0 -65 0 0 93 c0 50 6 117 14 148 28 123 119 226 237 270 72
26 212 22 282 -9z m-80 -176 c44 -18 94 -77 107 -126 6 -22 10 -75 8 -118 l-3
-77 -185 0 -185 0 -3 77 c-2 43 2 96 8 118 13 48 63 108 105 126 39 17 107 17
148 0z m348 -409 c66 -44 69 -60 69 -362 0 -302 -3 -318 -69 -362 -34 -23 -35
-23 -421 -23 -526 0 -490 -29 -490 385 0 302 3 318 69 362 34 23 35 23 421 23
386 0 387 0 421 -23z"/>
<path fill="#54C7EC" d="M865 580 l-130 -130 -62 62 -63 62 -22 -22 -23 -22 83 -83 82 -82
152 152 153 153 -20 20 -20 20 -130 -130z"/>
</g>
</svg>