<?xml version="1.0" standalone="no"?>
<!DOCTYPE svg PUBLIC "-//W3C//DTD SVG 20010904//EN"
 "http://www.w3.org/TR/2001/REC-SVG-20010904/DTD/svg10.dtd">

<svg version="1.0" xmlns="http://www.w3.org/2000/svg"
 width="950.000000pt" height="980.000000pt" viewBox="0 0 950.000000 980.000000"
 preserveAspectRatio="xMidYMid meet">
    <g transform="translate(0.000000,980.000000) scale(0.100000,-0.100000)"
    fill="#000000" stroke="none">
        <path fill="#25C2A0" d="M4425 9791 c-76 -8 -105 -20 -148 -59 -41 -39 -56 -104 -63 -292 l-7
        -169 -81 -31 c-45 -17 -109 -41 -143 -53 l-61 -21 -110 106 c-61 58 -132 119
        -158 134 -66 39 -132 39 -199 -1 -64 -37 -454 -425 -489 -486 -15 -26 -29 -69
        -33 -97 -9 -81 25 -141 158 -277 l111 -114 -52 -123 c-29 -68 -58 -129 -64
        -136 -8 -8 -66 -15 -177 -21 -215 -12 -271 -32 -317 -116 -15 -26 -17 -74 -17
        -390 0 -355 0 -361 23 -407 13 -25 34 -54 47 -62 41 -27 133 -45 290 -56 82
        -6 150 -12 151 -13 2 -1 27 -60 58 -131 l55 -128 -112 -119 c-141 -150 -161
        -184 -153 -262 9 -87 34 -132 132 -236 103 -109 333 -323 384 -357 101 -67
        193 -34 367 130 l111 106 139 -53 138 -53 7 -149 c8 -190 13 -226 38 -275 43
        -84 129 -103 465 -104 365 0 434 17 484 118 23 45 25 65 30 228 l6 180 139 54
        139 54 94 -88 c179 -166 255 -203 346 -168 24 9 87 56 147 109 140 125 364
        356 386 398 25 50 31 167 9 208 -9 18 -69 87 -133 152 l-116 120 16 42 c40
        102 87 210 97 220 6 6 80 14 176 18 155 7 170 9 223 36 47 23 61 36 81 76 21
        42 25 69 32 220 5 95 5 260 1 369 -8 185 -10 198 -33 232 -14 22 -45 47 -76
        62 -46 23 -70 27 -215 34 -90 5 -170 11 -179 15 -8 3 -40 63 -70 133 l-55 128
        106 112 c137 143 164 191 158 277 -3 54 -10 73 -43 122 -51 75 -353 376 -436
        435 -148 105 -197 91 -418 -119 l-95 -89 -135 55 c-75 30 -137 55 -138 56 -2
        1 -7 78 -13 171 -21 342 -25 345 -460 349 -151 2 -306 0 -345 -4z m497 -463
        c7 -249 17 -264 231 -338 64 -22 172 -67 239 -100 134 -66 180 -74 234 -41 17
        10 84 69 149 130 l119 112 89 -88 c48 -48 111 -114 139 -146 l51 -58 -110
        -112 c-61 -62 -118 -128 -128 -146 -26 -52 -15 -110 47 -246 30 -66 75 -176
        98 -244 49 -138 74 -176 128 -191 20 -5 110 -10 200 -10 l162 0 0 -209 0 -208
        -167 -5 c-233 -8 -259 -21 -304 -156 -33 -101 -72 -196 -125 -307 -60 -126
        -68 -187 -32 -243 14 -21 72 -86 128 -145 l103 -108 -140 -141 -141 -141 -131
        121 c-134 124 -175 148 -230 135 -14 -3 -87 -34 -161 -68 -74 -35 -184 -80
        -244 -101 -184 -63 -196 -83 -204 -326 l-5 -168 -197 0 -198 0 -4 173 c-5 245
        -13 258 -218 327 -52 18 -151 59 -219 91 -68 33 -141 64 -163 69 -60 17 -108
        -11 -242 -139 -64 -61 -119 -111 -124 -111 -4 0 -70 63 -147 140 l-139 140
        112 113 c132 134 159 182 141 249 -6 24 -33 91 -60 150 -27 58 -67 160 -89
        226 -73 211 -75 212 -328 220 l-172 5 2 206 3 206 175 5 c244 8 242 7 315 208
        24 64 69 176 100 247 89 198 87 207 -93 395 l-100 105 140 142 141 142 120
        -114 c65 -62 134 -121 152 -129 56 -27 91 -20 234 48 75 35 182 80 239 99 209
        72 221 92 222 350 l0 147 199 0 198 0 5 -162z"/>
        <path fill="#25C2A0" d="M4551 8469 c-391 -77 -675 -431 -673 -839 0 -137 22 -234 82 -358 69
        -145 156 -248 280 -332 250 -170 591 -191 865 -55 269 134 445 405 462 711 14
        246 -70 459 -251 640 -129 128 -250 196 -407 229 -77 16 -284 19 -358 4z m365
        -293 c142 -44 295 -192 347 -334 26 -71 35 -250 17 -331 -30 -137 -122 -263
        -258 -352 -84 -55 -137 -69 -265 -69 -207 0 -290 31 -414 155 -62 61 -91 100
        -115 151 l-33 69 0 180 c0 178 0 181 29 239 56 114 201 241 336 295 49 19 69
        21 180 17 75 -2 145 -10 176 -20z"/>
        <path fill="#54C7EC" d="M7250 6420 c-133 -23 -534 -141 -557 -164 -21 -19 -93 -218 -93 -256
        0 -19 9 -67 20 -105 11 -38 20 -81 20 -95 0 -27 -50 -81 -143 -155 l-47 -38
        -58 32 c-162 91 -224 115 -294 116 -77 0 -102 -14 -158 -88 -100 -131 -292
        -477 -305 -551 -17 -88 57 -185 207 -269 131 -73 121 -58 108 -162 -5 -50 -13
        -107 -16 -127 l-6 -37 -141 -46 c-165 -52 -196 -69 -234 -126 -41 -63 -38
        -140 16 -344 82 -314 132 -430 201 -467 48 -25 123 -23 255 7 61 14 121 28
        135 31 23 5 34 -5 103 -95 l76 -101 -60 -110 c-113 -204 -118 -298 -21 -381
        87 -74 430 -272 535 -309 50 -18 63 -19 105 -8 67 16 143 96 213 220 46 83 58
        98 79 98 54 0 225 -31 237 -43 6 -6 24 -55 38 -107 53 -191 131 -290 227 -290
        74 0 529 120 610 161 57 28 76 46 101 94 30 58 28 146 -7 277 -35 129 -36 125
        88 223 l85 66 90 -52 c169 -96 262 -120 330 -85 60 31 130 127 264 362 95 166
        127 239 127 287 0 101 -51 162 -213 252 -104 58 -107 61 -107 95 0 67 22 215
        33 226 7 6 68 27 137 48 69 21 144 49 167 62 60 35 93 95 93 170 0 99 -98 471
        -156 591 -66 139 -129 157 -353 103 l-132 -32 -26 23 c-14 13 -52 59 -84 101
        l-59 77 59 113 c88 166 105 251 65 328 -25 50 -262 203 -482 312 -134 67 -180
        75 -242 43 -50 -26 -114 -99 -164 -189 -74 -132 -54 -120 -194 -106 -67 7
        -126 18 -131 24 -5 6 -25 65 -45 131 -48 160 -72 203 -127 237 -50 31 -104 40
        -169 28z m-11 -339 c6 -10 26 -73 44 -139 19 -67 42 -133 51 -147 30 -46 87
        -66 219 -76 66 -5 173 -18 236 -30 65 -12 136 -19 161 -16 57 6 83 35 174 185
        37 61 73 112 79 112 13 0 202 -110 251 -146 14 -11 26 -26 26 -34 0 -9 -21
        -51 -46 -95 -66 -114 -94 -176 -94 -208 0 -41 31 -93 105 -177 37 -41 103
        -126 147 -188 44 -62 90 -120 103 -128 42 -28 86 -27 221 5 72 17 139 31 147
        31 16 0 54 -101 82 -220 25 -111 31 -103 -102 -140 -228 -62 -241 -76 -255
        -272 -5 -72 -17 -176 -28 -232 -24 -120 -25 -177 -6 -215 16 -30 42 -49 183
        -135 51 -31 95 -61 98 -67 7 -10 -62 -135 -127 -232 l-39 -58 -132 70 c-73 38
        -147 72 -165 76 -45 9 -100 -20 -197 -106 -44 -39 -131 -107 -192 -150 -116
        -82 -143 -114 -143 -169 0 -18 14 -90 30 -162 17 -71 30 -134 30 -139 0 -12
        -61 -36 -149 -58 -115 -29 -166 -34 -178 -19 -5 7 -25 66 -43 132 -55 195 -76
        213 -262 225 -68 5 -179 19 -248 31 -193 36 -212 27 -312 -142 -31 -52 -65
        -104 -75 -117 l-19 -23 -44 22 c-55 28 -199 117 -222 137 -16 15 -13 25 52
        149 101 194 100 202 -48 373 -38 44 -97 121 -131 170 -33 49 -74 100 -91 114
        -49 41 -78 42 -231 7 -76 -18 -145 -30 -153 -27 -31 12 -101 296 -79 318 6 6
        62 25 124 43 130 37 169 55 198 92 24 30 28 50 40 205 6 64 20 167 31 229 34
        175 23 198 -140 297 -52 32 -106 66 -120 76 l-25 17 32 63 c55 106 131 217
        148 217 9 0 65 -27 123 -59 59 -33 127 -65 152 -72 60 -16 89 -2 211 102 52
        45 132 107 180 139 94 64 148 119 150 153 3 46 -4 95 -27 192 -34 142 -35 140
        34 165 74 28 212 69 234 69 10 1 22 -7 27 -18z"/>
        <path fill="#54C7EC" d="M7323 5175 c-140 -36 -242 -94 -344 -195 -153 -152 -219 -299 -227
        -506 -4 -100 -1 -135 17 -205 69 -277 280 -490 561 -566 100 -28 283 -25 380
        5 274 86 473 289 537 549 23 93 22 266 -2 358 -106 417 -515 665 -922 560z
        m287 -291 c166 -37 318 -205 351 -386 37 -205 -132 -445 -355 -504 -140 -37
        -294 9 -411 123 -103 102 -151 219 -143 353 6 106 47 189 137 280 132 133 254
        172 421 134z"/>
        <path fill="#25C2A0" d="M2393 5754 c-46 -23 -100 -86 -112 -131 -6 -21 -15 -150 -20 -287 -6
        -136 -11 -249 -13 -250 -2 -1 -66 -26 -143 -55 -77 -29 -177 -71 -223 -93
        l-83 -39 -145 138 c-241 230 -260 243 -354 243 -85 0 -123 -26 -321 -217 -137
        -133 -392 -407 -440 -472 -20 -26 -32 -57 -36 -90 -10 -84 32 -153 190 -319
        73 -76 145 -151 160 -168 l28 -31 -62 -139 c-34 -76 -73 -176 -87 -220 l-27
        -82 -235 -5 c-286 -5 -313 -12 -400 -95 l-60 -57 -1 -462 c0 -507 0 -515 59
        -583 64 -76 105 -86 400 -99 114 -5 214 -12 223 -16 9 -3 31 -45 49 -93 18
        -48 57 -144 87 -214 l55 -128 -160 -165 c-192 -199 -211 -225 -219 -296 -10
        -99 2 -121 170 -300 208 -222 483 -485 533 -509 48 -24 139 -27 187 -6 36 15
        127 95 292 258 l111 109 94 -44 c52 -24 151 -66 220 -92 69 -26 129 -51 133
        -55 4 -4 12 -114 18 -246 12 -294 17 -320 74 -373 71 -66 76 -66 592 -66 l463
        1 49 48 c89 88 95 112 99 398 l4 246 81 26 c45 14 146 54 225 90 l143 64 147
        -142 c221 -213 256 -236 355 -236 73 0 102 21 331 237 328 308 466 477 466
        570 0 63 -46 129 -215 308 -91 95 -165 177 -165 182 0 5 26 67 59 138 32 72
        71 169 87 218 l28 87 189 0 c299 0 385 22 468 122 l40 47 -3 473 -3 473 -25
        50 c-22 45 -33 54 -105 90 l-79 40 -241 3 -241 4 -38 111 c-21 62 -61 162 -90
        222 l-53 110 153 157 c84 86 170 182 191 214 33 49 38 65 38 114 0 92 -37 141
        -320 428 -267 271 -365 355 -441 378 -94 28 -150 -5 -374 -223 l-158 -153
        -139 61 c-76 34 -176 75 -223 90 l-85 27 -6 244 c-3 134 -11 258 -17 276 -17
        51 -50 99 -95 137 l-41 35 -480 0 c-420 0 -485 -2 -513 -16z m847 -526 c0
        -134 5 -261 10 -282 12 -55 40 -89 86 -104 21 -7 93 -30 159 -51 66 -21 206
        -80 310 -130 130 -62 201 -91 226 -91 53 0 113 45 297 224 l163 159 232 -229
        c127 -126 234 -230 236 -231 2 -2 -72 -81 -166 -176 -189 -193 -220 -239 -209
        -310 4 -23 38 -107 75 -187 38 -80 92 -208 120 -285 81 -221 103 -268 134
        -283 19 -9 106 -15 297 -19 l270 -6 0 -334 0 -333 -225 0 c-123 0 -247 -5
        -274 -11 -92 -20 -116 -52 -180 -246 -21 -65 -75 -198 -120 -295 -98 -216
        -110 -253 -91 -299 8 -19 94 -115 199 -222 l185 -188 -239 -239 -239 -239
        -145 141 c-80 78 -175 166 -211 195 -61 52 -68 54 -110 50 -29 -3 -107 -34
        -215 -85 -94 -44 -238 -103 -320 -132 -173 -60 -218 -82 -236 -119 -10 -19
        -15 -98 -19 -296 l-5 -270 -331 -3 -330 -2 -10 263 c-9 234 -13 268 -30 298
        -29 48 -74 75 -187 110 -129 41 -190 65 -381 156 -92 44 -177 78 -202 81 -40
        4 -49 0 -101 -38 -31 -24 -122 -108 -203 -187 -81 -78 -151 -143 -156 -143 -5
        0 -112 103 -238 229 l-230 230 150 154 c83 84 170 179 193 210 55 72 53 82
        -39 277 -78 165 -113 252 -160 395 -40 124 -67 173 -103 191 -39 21 -167 34
        -327 34 -74 0 -159 3 -187 6 l-53 7 0 327 0 327 258 5 c342 7 344 7 403 186
        43 132 75 210 158 393 39 86 76 177 83 202 12 45 11 46 -29 99 -22 29 -106
        122 -186 206 -81 85 -147 162 -147 172 0 16 382 397 437 435 18 12 32 2 187
        -146 93 -88 186 -169 207 -179 21 -11 58 -20 81 -20 43 0 55 5 304 118 61 28
        173 71 248 96 76 25 153 55 171 66 61 38 68 66 79 353 l9 257 334 0 333 0 0
        -242z"/>
        <path fill="#25C2A0" d="M2700 4400 c-501 -70 -940 -384 -1164 -835 -114 -228 -149 -389 -150
        -685 -1 -218 10 -288 70 -469 173 -520 594 -891 1149 -1013 40 -9 136 -13 285
        -13 318 1 426 23 665 141 342 168 601 442 745 786 85 205 117 395 107 647 -6
        171 -25 274 -73 414 -83 237 -197 421 -369 592 -217 217 -470 351 -785 415
        -119 25 -372 35 -480 20z m432 -321 c370 -73 683 -314 853 -657 83 -168 116
        -319 116 -532 0 -352 -99 -592 -348 -844 -189 -192 -376 -297 -609 -342 -110
        -21 -366 -24 -474 -5 -245 43 -440 149 -635 345 -164 164 -255 320 -313 535
        -24 88 -26 113 -26 306 -1 183 2 221 21 296 57 226 150 387 321 556 311 308
        680 423 1094 342z"/>
    </g>
</svg>