<?xml version="1.0" standalone="no"?>
<!DOCTYPE svg PUBLIC "-//W3C//DTD SVG 20010904//EN"
 "http://www.w3.org/TR/2001/REC-SVG-20010904/DTD/svg10.dtd">
<svg version="1.0" xmlns="http://www.w3.org/2000/svg"
 width="500.000000pt" height="500.000000pt" viewBox="0 0 500.000000 500.000000"
 preserveAspectRatio="xMidYMid meet">

<g transform="translate(0.000000,500.000000) scale(0.100000,-0.100000)"
fill="#000000" stroke="none">
<path fill="#25C2A0" d="M4370 4643 c-570 -51 -1033 -188 -1402 -414 -251 -154 -499 -416
-979 -1034 l-181 -233 -181 -6 c-100 -4 -284 -10 -409 -14 -208 -7 -229 -9
-255 -28 -15 -12 -70 -93 -120 -180 -150 -257 -153 -252 236 -394 151 -55 276
-100 278 -100 2 0 3 -44 3 -97 0 -132 29 -267 79 -368 l40 -80 -86 -87 c-76
-78 -85 -91 -79 -115 10 -40 44 -66 75 -58 14 3 62 42 106 85 l80 79 57 -30
c100 -51 219 -80 362 -87 l129 -7 102 -279 c112 -307 124 -326 193 -326 28 0
74 22 196 93 87 50 168 105 180 120 19 26 21 47 28 255 4 125 10 309 14 409
l6 182 230 177 c342 264 585 470 759 643 130 130 170 178 241 286 206 314 333
661 414 1134 31 181 43 427 22 454 -15 20 -64 27 -138 20z m20 -145 c0 -7 -6
-69 -14 -138 -38 -336 -119 -654 -239 -930 -70 -163 -138 -280 -238 -410 -186
-242 -797 -750 -1438 -1193 l-314 -217 -86 0 c-138 0 -316 37 -365 75 -19 14
-16 19 72 109 99 100 111 127 72 166 -39 39 -66 27 -167 -72 -90 -89 -95 -92
-109 -73 -37 50 -74 232 -74 365 l0 85 221 320 c434 626 910 1205 1164 1414
269 222 670 386 1140 466 252 43 375 53 375 33z m-2702 -1710 c-13 -18 -84
-120 -157 -226 -117 -170 -136 -192 -155 -186 -11 4 -126 45 -254 92 l-232 85
19 31 c10 17 42 72 71 121 29 50 55 92 56 94 4 5 353 17 543 19 l133 2 -24
-32z m1007 -1297 l-8 -331 -121 -71 c-67 -40 -124 -73 -127 -75 -10 -6 -191
498 -182 507 17 17 438 307 441 304 2 -2 1 -152 -3 -334z"/>
<path fill="#54C7EC" d="M3219 3770 c-176 -31 -309 -202 -297 -384 15 -236 243 -397 468 -330
274 81 354 425 146 623 -80 74 -205 111 -317 91z m169 -152 c179 -90 175 -339
-8 -421 -88 -40 -186 -20 -258 51 -45 46 -65 95 -65 162 -1 168 181 282 331
208z"/>
<path fill="#54C7EC" d="M2479 2837 c-55 -37 -79 -81 -79 -147 0 -100 59 -162 163 -168 53 -3
67 0 97 20 19 13 45 39 58 58 20 30 23 44 20 97 -4 70 -23 103 -78 141 -46 31
-134 31 -181 -1z"/>
<path fill="#54C7EC" d="M1014 1772 c-11 -1 -112 -95 -224 -207 -188 -189 -202 -206 -196
-232 10 -39 43 -66 75 -58 28 7 407 377 420 410 18 45 -25 96 -75 87z"/>
<path fill="#54C7EC" d="M903 1117 c-217 -216 -227 -233 -183 -277 44 -44 61 -34 277 183 214
213 222 225 187 275 -10 15 -25 22 -47 22 -28 0 -56 -24 -234 -203z"/>
<path fill="#54C7EC" d="M1565 1210 c-11 -4 -109 -98 -219 -208 -184 -186 -198 -203 -192
-229 10 -39 43 -66 75 -58 28 7 407 377 420 410 12 29 -6 70 -35 84 -14 6 -26
11 -27 10 -1 0 -11 -4 -22 -9z"/>
</g>
</svg>